# xmcd
# 
# Track frame offsets:
#     150
#     11337
#     28853
#     40759
#     51144
#     61155
#     78856
#     96044
#     108992
#     123363
# 
# Disc length: 1724
# 
# Revision: 2
# Processed by: cddbd v1.5.2PL0 Copyright (c) Steve Scherf et al.
# Submitted via: fre:ac v1.0.31
# 
DISCID=6f06ba0a
DTITLE=Emmylou Harris - The Ballad Of Sally Rose Disc 2
DYEAR=2018
DGENRE=Country
TTITLE0=Timberline
TTITLE1=The Sweetheart Of The Radio
TTITLE2=Sweet Chariot
TTITLE3=The Ballad Of Sally Rose
TTITLE4=Heart To Heart
TTITLE5=Woman Walk The Line
TTITLE6=White Line
TTITLE7=Diamond In My Crown
TTITLE8=Rhythm Guitar
TTITLE9=Bad News
EXTD=
EXTT0=
EXTT1=
EXTT2=
EXTT3=
EXTT4=
EXTT5=
EXTT6=
EXTT7=
EXTT8=
EXTT9=
PLAYORDER=
